<svg width="17" height="11" viewBox="0 0 17 11" fill="none" xmlns="http://www.w3.org/2000/svg">
<path d="M16.2458 10.9902C16.2329 10.992 16.2203 10.9944 16.2073 10.9957C16.1784 10.9985 16.1494 11 16.1204 11H11.4294C11.3138 11 11.1995 10.9775 11.0928 10.9339C10.986 10.8902 10.8891 10.8262 10.8074 10.7455C10.7257 10.6649 10.6609 10.5691 10.6167 10.4637C10.5725 10.3583 10.5498 10.2453 10.5498 10.1312C10.5498 10.0171 10.5725 9.90411 10.6167 9.7987C10.6609 9.69329 10.7257 9.59752 10.8074 9.51684C10.8891 9.43616 10.986 9.37216 11.0928 9.3285C11.1995 9.28484 11.3138 9.26237 11.4294 9.26237H13.997L9.08381 4.40931L6.7739 6.69103C6.60895 6.85396 6.38524 6.94548 6.15197 6.94548C5.9187 6.94548 5.69498 6.85396 5.53003 6.69103L0.252577 1.47814C0.089844 1.31476 -0.000937524 1.09448 7.30183e-06 0.865278C0.000952128 0.636082 0.0935467 0.416538 0.257622 0.25447C0.421697 0.0924023 0.643959 0.00094048 0.875995 7.21251e-06C1.10803 -0.000926055 1.33104 0.0887448 1.49644 0.249488L6.15189 4.84799L8.46188 2.56633C8.62683 2.40341 8.85055 2.31188 9.08381 2.31188C9.31708 2.31188 9.5408 2.40341 9.70575 2.56633L15.2408 8.03365V5.4975C15.2408 5.26707 15.3335 5.04609 15.4985 4.88315C15.6634 4.72022 15.8871 4.62868 16.1204 4.62868C16.3537 4.62868 16.5774 4.72022 16.7424 4.88315C16.9073 5.04609 17 5.26707 17 5.4975V10.1308C17 10.1596 16.9985 10.1883 16.9956 10.2171C16.9944 10.2292 16.9922 10.2409 16.9905 10.253C16.9881 10.269 16.9861 10.2852 16.983 10.3012C16.9801 10.3152 16.9763 10.3287 16.9727 10.3424C16.9693 10.3561 16.9662 10.37 16.962 10.3836C16.9579 10.3972 16.9527 10.4103 16.9479 10.4236C16.943 10.437 16.9385 10.4505 16.9329 10.4638C16.9278 10.4762 16.9216 10.4882 16.9159 10.5003C16.9094 10.5139 16.9032 10.5276 16.8961 10.5408C16.8898 10.5524 16.8826 10.5633 16.876 10.5745C16.868 10.5876 16.8604 10.6009 16.8518 10.6137C16.8434 10.626 16.8342 10.6376 16.8253 10.6494C16.817 10.6602 16.8094 10.6714 16.8006 10.6819C16.7834 10.7025 16.7653 10.7224 16.7463 10.7413C16.745 10.7426 16.7438 10.7442 16.7424 10.7455C16.741 10.7468 16.7395 10.748 16.738 10.7494C16.719 10.7681 16.699 10.7861 16.6781 10.803C16.6672 10.8118 16.6556 10.8196 16.6443 10.828C16.6326 10.8365 16.6212 10.8455 16.6091 10.8535C16.596 10.8622 16.5824 10.8697 16.569 10.8776C16.5578 10.8842 16.5468 10.8912 16.5353 10.8973C16.5217 10.9044 16.5079 10.9104 16.494 10.9168C16.4818 10.9226 16.4698 10.9286 16.4572 10.9338C16.4439 10.9392 16.4303 10.9436 16.4166 10.9484C16.4031 10.9532 16.3898 10.9584 16.3759 10.9625C16.3625 10.9665 16.3488 10.9694 16.3353 10.9728C16.321 10.9764 16.3069 10.9803 16.2924 10.9831C16.277 10.9862 16.2613 10.988 16.2458 10.9902Z" fill="#2ECC71"/>
</svg>
