<svg width="17" height="11" viewBox="0 0 17 11" fill="none" xmlns="http://www.w3.org/2000/svg">
<path d="M17 0.869178V5.5025C17 5.73293 16.9073 5.95391 16.7424 6.11685C16.5774 6.27978 16.3537 6.37132 16.1204 6.37132C15.8871 6.37132 15.6634 6.27978 15.4985 6.11685C15.3335 5.95391 15.2408 5.73293 15.2408 5.5025V2.96628L9.70582 8.43367C9.54087 8.59659 9.31716 8.68812 9.08389 8.68812C8.85062 8.68812 8.62691 8.59659 8.46195 8.43367L6.15189 6.15201L1.49644 10.7505C1.33104 10.9113 1.10803 11.0009 0.875995 11C0.643959 10.9991 0.421697 10.9076 0.257622 10.7455C0.0935468 10.5835 0.000952128 10.3639 7.30183e-06 10.1347C-0.000937524 9.90553 0.089844 9.68524 0.252577 9.52186L5.53003 4.30897C5.69499 4.14604 5.9187 4.05452 6.15197 4.05452C6.38524 4.05452 6.60895 4.14604 6.7739 4.30897L9.08382 6.59062L13.997 1.73763H11.4294C11.1961 1.73763 10.9724 1.6461 10.8074 1.48316C10.6424 1.32023 10.5498 1.09924 10.5498 0.868816C10.5498 0.638392 10.6424 0.417405 10.8074 0.25447C10.9724 0.0915356 11.1961 4.85583e-09 11.4294 0H16.1201C16.1492 0 16.1784 0.00144813 16.2074 0.00434418C16.2197 0.0055026 16.2316 0.00781938 16.2436 0.00948461C16.26 0.0118015 16.2763 0.013684 16.2925 0.0168696C16.3066 0.0196209 16.3202 0.0234579 16.3341 0.0268608C16.348 0.030336 16.3622 0.0333771 16.3761 0.0375764C16.3896 0.0416308 16.4028 0.0466988 16.416 0.0513325C16.4298 0.0561834 16.4437 0.0607448 16.4573 0.0662473C16.4697 0.0713154 16.4815 0.0773247 16.4935 0.0828996C16.5075 0.0894157 16.5217 0.0954973 16.5353 0.102737C16.5467 0.108819 16.5575 0.115697 16.5686 0.122213C16.5822 0.130178 16.5959 0.13778 16.6091 0.146468C16.6211 0.154432 16.6325 0.16341 16.6441 0.171953C16.6555 0.180279 16.6671 0.188099 16.6781 0.197076C16.699 0.214018 16.7189 0.231902 16.7381 0.250654C16.7395 0.251957 16.741 0.253115 16.7424 0.254491C16.7438 0.255866 16.7449 0.257387 16.7463 0.258762C16.7653 0.277732 16.7835 0.297425 16.8006 0.318059C16.8094 0.32863 16.817 0.339779 16.8253 0.35064C16.8342 0.362441 16.8434 0.373953 16.8517 0.386261C16.8605 0.399076 16.868 0.412326 16.8759 0.425503C16.8827 0.436725 16.8898 0.447657 16.896 0.459097C16.9033 0.472419 16.9094 0.486175 16.9159 0.499786C16.9216 0.511877 16.9277 0.523751 16.9329 0.536204C16.9385 0.549454 16.943 0.562993 16.9479 0.57646C16.9527 0.589709 16.9579 0.602814 16.962 0.616353C16.9662 0.630036 16.9693 0.643865 16.9727 0.657621C16.9763 0.671378 16.9801 0.684844 16.983 0.69889C16.9861 0.714818 16.9881 0.730964 16.9904 0.747037C16.9922 0.759056 16.9944 0.770785 16.9956 0.782948C16.9985 0.811619 17 0.840362 17 0.869178Z" fill="#F67280"/>
</svg>
