<svg width="64" height="64" viewBox="0 0 64 64" fill="none" xmlns="http://www.w3.org/2000/svg">
    <g clip-path="url(#clip0)">
        <path d="M28 24C27.6044 24 27.2178 24.1173 26.8889 24.3371C26.56 24.5568 26.3036 24.8692 26.1522 25.2346C26.0009 25.6001 25.9613 26.0022 26.0384 26.3902C26.1156 26.7781 26.3061 27.1345 26.5858 27.4142C26.8655 27.6939 27.2219 27.8844 27.6098 27.9616C27.9978 28.0387 28.3999 27.9991 28.7654 27.8478C29.1308 27.6964 29.4432 27.44 29.6629 27.1111C29.8827 26.7822 30 26.3956 30 26C30 25.4696 29.7893 24.9609 29.4142 24.5858C29.0391 24.2107 28.5304 24 28 24ZM58.3125 10.46L34.3125 0.46C33.5743 0.18087 32.7951 0.0254496 32.0063 0C31.2171 0.0249124 30.4374 0.179912 29.6988 0.45875L5.69875 10.4587C4.60299 10.9126 3.66658 11.6814 3.00813 12.6678C2.34968 13.6543 1.99882 14.814 2 16C2 40.8125 16.3125 57.965 29.6875 63.54C30.4186 63.8438 31.2026 64.0003 31.9944 64.0003C32.7861 64.0003 33.5701 63.8438 34.3013 63.54C45.0113 59.0762 62 43.6625 62 16C62.0007 14.8157 61.6509 13.6577 60.9947 12.6719C60.3385 11.686 59.4053 10.9164 58.3125 10.46ZM48 32H46.485C42.9213 32 41.1363 36.3088 43.6563 38.8288L44.7288 39.9C45.1039 40.2751 45.3146 40.7839 45.3146 41.3144C45.3146 41.8449 45.1039 42.3536 44.7288 42.7287C44.3536 43.1039 43.8449 43.3146 43.3144 43.3146C42.7839 43.3146 42.2751 43.1039 41.9 42.7287L40.8288 41.6562C38.3088 39.1362 34 40.9213 34 44.485V46C34 46.5304 33.7893 47.0391 33.4142 47.4142C33.0391 47.7893 32.5304 48 32 48C31.4696 48 30.9609 47.7893 30.5858 47.4142C30.2107 47.0391 30 46.5304 30 46V44.485C30 40.9213 25.6913 39.1362 23.1713 41.6562L22.1 42.7287C21.9143 42.9145 21.6938 43.0618 21.4511 43.1623C21.2084 43.2629 20.9483 43.3146 20.6856 43.3146C20.423 43.3146 20.1629 43.2629 19.9202 43.1623C19.6775 43.0618 19.457 42.9145 19.2713 42.7287C19.0855 42.543 18.9382 42.3225 18.8377 42.0798C18.7371 41.8372 18.6854 41.577 18.6854 41.3144C18.6854 41.0517 18.7371 40.7916 18.8377 40.5489C18.9382 40.3062 19.0855 40.0857 19.2713 39.9L20.3438 38.8288C22.8638 36.3088 21.0788 32 17.515 32H16C15.4696 32 14.9609 31.7893 14.5858 31.4142C14.2107 31.0391 14 30.5304 14 30C14 29.4696 14.2107 28.9609 14.5858 28.5858C14.9609 28.2107 15.4696 28 16 28H17.515C21.0788 28 22.8638 23.6912 20.3438 21.1712L19.2713 20.1C18.8961 19.7249 18.6854 19.2161 18.6854 18.6856C18.6854 18.1551 18.8961 17.6464 19.2713 17.2712C19.6464 16.8961 20.1551 16.6854 20.6856 16.6854C21.2161 16.6854 21.7249 16.8961 22.1 17.2712L23.1713 18.3437C25.6913 20.8638 30 19.0788 30 15.515V14C30 13.4696 30.2107 12.9609 30.5858 12.5858C30.9609 12.2107 31.4696 12 32 12C32.5304 12 33.0391 12.2107 33.4142 12.5858C33.7893 12.9609 34 13.4696 34 14V15.515C34 19.0788 38.3088 20.8638 40.8288 18.3437L41.9 17.2712C42.2751 16.8961 42.7839 16.6854 43.3144 16.6854C43.8449 16.6854 44.3536 16.8961 44.7288 17.2712C45.1039 17.6464 45.3146 18.1551 45.3146 18.6856C45.3146 19.2161 45.1039 19.7249 44.7288 20.1L43.6563 21.1712C41.1363 23.6912 42.9213 28 46.485 28H48C48.5304 28 49.0391 28.2107 49.4142 28.5858C49.7893 28.9609 50 29.4696 50 30C50 30.5304 49.7893 31.0391 49.4142 31.4142C49.0391 31.7893 48.5304 32 48 32ZM36 32C35.6044 32 35.2178 32.1173 34.8889 32.3371C34.56 32.5568 34.3036 32.8692 34.1522 33.2346C34.0009 33.6001 33.9613 34.0022 34.0384 34.3902C34.1156 34.7781 34.3061 35.1345 34.5858 35.4142C34.8655 35.6939 35.2219 35.8844 35.6098 35.9616C35.9978 36.0387 36.3999 35.9991 36.7654 35.8478C37.1308 35.6964 37.4432 35.44 37.6629 35.1111C37.8827 34.7822 38 34.3956 38 34C38 33.4696 37.7893 32.9609 37.4142 32.5858C37.0391 32.2107 36.5304 32 36 32Z"
              fill="#56CEC0"/>
    </g>
    <defs>
        <clipPath id="clip0">
            <rect width="64" height="64" fill="white"/>
        </clipPath>
    </defs>
</svg>
