<svg width="256" height="256" viewBox="0 0 256 256" fill="none" xmlns="http://www.w3.org/2000/svg">
<g clip-path="url(#clip0)">
<path d="M112 96C110.418 96 108.871 96.4692 107.555 97.3482C106.24 98.2273 105.214 99.4767 104.609 100.939C104.003 102.4 103.845 104.009 104.154 105.561C104.462 107.113 105.224 108.538 106.343 109.657C107.462 110.776 108.887 111.538 110.439 111.846C111.991 112.155 113.6 111.997 115.061 111.391C116.523 110.786 117.773 109.76 118.652 108.445C119.531 107.129 120 105.582 120 104C120 101.878 119.157 99.8434 117.657 98.3431C116.157 96.8429 114.122 96 112 96ZM233.25 41.84L137.25 1.84C134.297 0.72348 131.18 0.101798 128.025 0C124.868 0.0996497 121.75 0.719649 118.795 1.835L22.795 41.835C18.412 43.6503 14.6663 46.7256 12.0325 50.6714C9.39873 54.6172 7.9953 59.2559 8.00001 64C8.00001 163.25 65.25 231.86 118.75 254.16C121.675 255.375 124.81 256.001 127.978 256.001C131.145 256.001 134.28 255.375 137.205 254.16C180.045 236.305 248 174.65 248 64C248.003 59.2629 246.604 54.631 243.979 50.6876C241.354 46.7442 237.621 43.6657 233.25 41.84ZM192 128H185.94C171.685 128 164.545 145.235 174.625 155.315L178.915 159.6C180.415 161.1 181.258 163.136 181.258 165.258C181.258 167.379 180.415 169.415 178.915 170.915C177.415 172.415 175.38 173.258 173.258 173.258C171.136 173.258 169.1 172.415 167.6 170.915L163.315 166.625C153.235 156.545 136 163.685 136 177.94V184C136 186.122 135.157 188.157 133.657 189.657C132.157 191.157 130.122 192 128 192C125.878 192 123.843 191.157 122.343 189.657C120.843 188.157 120 186.122 120 184V177.94C120 163.685 102.765 156.545 92.685 166.625L88.4 170.915C87.6571 171.658 86.775 172.247 85.8043 172.649C84.8336 173.051 83.7932 173.258 82.7425 173.258C81.6918 173.258 80.6514 173.051 79.6807 172.649C78.71 172.247 77.828 171.658 77.085 170.915C76.3421 170.172 75.7527 169.29 75.3506 168.319C74.9486 167.349 74.7416 166.308 74.7416 165.258C74.7416 164.207 74.9486 163.166 75.3506 162.196C75.7527 161.225 76.3421 160.343 77.085 159.6L81.375 155.315C91.455 145.235 84.315 128 70.06 128H64C61.8783 128 59.8435 127.157 58.3432 125.657C56.8429 124.157 56 122.122 56 120C56 117.878 56.8429 115.843 58.3432 114.343C59.8435 112.843 61.8783 112 64 112H70.06C84.315 112 91.455 94.765 81.375 84.685L77.085 80.4C75.5846 78.8995 74.7416 76.8645 74.7416 74.7425C74.7416 72.6205 75.5846 70.5855 77.085 69.085C78.5855 67.5845 80.6205 66.7416 82.7425 66.7416C84.8645 66.7416 86.8996 67.5845 88.4 69.085L92.685 73.375C102.765 83.455 120 76.315 120 62.06V56C120 53.8783 120.843 51.8434 122.343 50.3431C123.843 48.8429 125.878 48 128 48C130.122 48 132.157 48.8429 133.657 50.3431C135.157 51.8434 136 53.8783 136 56V62.06C136 76.315 153.235 83.455 163.315 73.375L167.6 69.085C169.1 67.5845 171.136 66.7416 173.258 66.7416C175.38 66.7416 177.415 67.5845 178.915 69.085C180.415 70.5855 181.258 72.6205 181.258 74.7425C181.258 76.8645 180.415 78.8995 178.915 80.4L174.625 84.685C164.545 94.765 171.685 112 185.94 112H192C194.122 112 196.157 112.843 197.657 114.343C199.157 115.843 200 117.878 200 120C200 122.122 199.157 124.157 197.657 125.657C196.157 127.157 194.122 128 192 128ZM144 128C142.418 128 140.871 128.469 139.555 129.348C138.24 130.227 137.214 131.477 136.609 132.939C136.003 134.4 135.845 136.009 136.154 137.561C136.462 139.113 137.224 140.538 138.343 141.657C139.462 142.776 140.887 143.538 142.439 143.846C143.991 144.155 145.6 143.997 147.061 143.391C148.523 142.786 149.773 141.76 150.652 140.445C151.531 139.129 152 137.582 152 136C152 133.878 151.157 131.843 149.657 130.343C148.157 128.843 146.122 128 144 128Z" fill="#56CEC0"/>
</g>
<defs>
<clipPath id="clip0">
<rect width="256" height="256" fill="white"/>
</clipPath>
</defs>
</svg>
