<svg width="128" height="128" viewBox="0 0 128 128" fill="none" xmlns="http://www.w3.org/2000/svg">
<g clip-path="url(#clip0)">
<path d="M56 48C55.2089 48 54.4355 48.2346 53.7777 48.6741C53.1199 49.1136 52.6072 49.7384 52.3045 50.4693C52.0017 51.2002 51.9225 52.0044 52.0769 52.7804C52.2312 53.5563 52.6122 54.269 53.1716 54.8284C53.731 55.3878 54.4437 55.7688 55.2196 55.9231C55.9956 56.0775 56.7998 55.9983 57.5307 55.6955C58.2616 55.3928 58.8864 54.8801 59.3259 54.2223C59.7654 53.5645 60 52.7911 60 52C60 50.9391 59.5786 49.9217 58.8284 49.1716C58.0783 48.4214 57.0609 48 56 48ZM116.625 20.92L68.625 0.92C67.1486 0.36174 65.5901 0.0508992 64.0125 0C62.4342 0.0498249 60.8749 0.359825 59.3975 0.9175L11.3975 20.9175C9.20599 21.8251 7.33316 23.3628 6.01626 25.3357C4.69937 27.3086 3.99765 29.628 4.00001 32C4.00001 81.625 32.625 115.93 59.375 127.08C60.8373 127.688 62.4052 128.001 63.9888 128.001C65.5723 128.001 67.1402 127.688 68.6025 127.08C90.0225 118.152 124 87.325 124 32C124.001 29.6315 123.302 27.3155 121.989 25.3438C120.677 23.3721 118.811 21.8329 116.625 20.92ZM96 64H92.97C85.8425 64 82.2725 72.6175 87.3125 77.6575L89.4575 79.8C90.2077 80.5502 90.6292 81.5678 90.6292 82.6288C90.6292 83.6897 90.2077 84.7073 89.4575 85.4575C88.7073 86.2077 87.6898 86.6292 86.6288 86.6292C85.5678 86.6292 84.5502 86.2077 83.8 85.4575L81.6575 83.3125C76.6175 78.2725 68 81.8425 68 88.97V92C68 93.0609 67.5786 94.0783 66.8284 94.8284C66.0783 95.5786 65.0609 96 64 96C62.9391 96 61.9217 95.5786 61.1716 94.8284C60.4214 94.0783 60 93.0609 60 92V88.97C60 81.8425 51.3825 78.2725 46.3425 83.3125L44.2 85.4575C43.8285 85.829 43.3875 86.1237 42.9022 86.3247C42.4168 86.5257 41.8966 86.6292 41.3713 86.6292C40.8459 86.6292 40.3257 86.5257 39.8403 86.3247C39.355 86.1237 38.914 85.829 38.5425 85.4575C38.171 85.086 37.8764 84.645 37.6753 84.1597C37.4743 83.6743 37.3708 83.1541 37.3708 82.6288C37.3708 82.1034 37.4743 81.5832 37.6753 81.0978C37.8764 80.6125 38.171 80.1715 38.5425 79.8L40.6875 77.6575C45.7275 72.6175 42.1575 64 35.03 64H32C30.9391 64 29.9217 63.5786 29.1716 62.8284C28.4214 62.0783 28 61.0609 28 60C28 58.9391 28.4214 57.9217 29.1716 57.1716C29.9217 56.4214 30.9391 56 32 56H35.03C42.1575 56 45.7275 47.3825 40.6875 42.3425L38.5425 40.2C37.7923 39.4498 37.3708 38.4322 37.3708 37.3712C37.3708 36.3103 37.7923 35.2927 38.5425 34.5425C39.2927 33.7923 40.3103 33.3708 41.3713 33.3708C42.4322 33.3708 43.4498 33.7923 44.2 34.5425L46.3425 36.6875C51.3825 41.7275 60 38.1575 60 31.03V28C60 26.9391 60.4214 25.9217 61.1716 25.1716C61.9217 24.4214 62.9391 24 64 24C65.0609 24 66.0783 24.4214 66.8284 25.1716C67.5786 25.9217 68 26.9391 68 28V31.03C68 38.1575 76.6175 41.7275 81.6575 36.6875L83.8 34.5425C84.5502 33.7923 85.5678 33.3708 86.6288 33.3708C87.6898 33.3708 88.7073 33.7923 89.4575 34.5425C90.2077 35.2927 90.6292 36.3103 90.6292 37.3712C90.6292 38.4322 90.2077 39.4498 89.4575 40.2L87.3125 42.3425C82.2725 47.3825 85.8425 56 92.97 56H96C97.0609 56 98.0783 56.4214 98.8284 57.1716C99.5786 57.9217 100 58.9391 100 60C100 61.0609 99.5786 62.0783 98.8284 62.8284C98.0783 63.5786 97.0609 64 96 64ZM72 64C71.2089 64 70.4355 64.2346 69.7777 64.6741C69.1199 65.1136 68.6072 65.7384 68.3045 66.4693C68.0017 67.2002 67.9225 68.0044 68.0769 68.7804C68.2312 69.5563 68.6122 70.269 69.1716 70.8284C69.731 71.3878 70.4437 71.7688 71.2196 71.9231C71.9956 72.0775 72.7998 71.9983 73.5307 71.6955C74.2616 71.3928 74.8864 70.8801 75.3259 70.2223C75.7654 69.5645 76 68.7911 76 68C76 66.9391 75.5786 65.9217 74.8284 65.1716C74.0783 64.4214 73.0609 64 72 64Z" fill="#56CEC0"/>
</g>
<defs>
<clipPath id="clip0">
<rect width="128" height="128" fill="white"/>
</clipPath>
</defs>
</svg>
